<svg xmlns="http://www.w3.org/2000/svg" viewBox="0 0 1920 1080" width="1920" height="1080">
  <!-- Background Gradient -->
  <defs>
    <linearGradient id="bg-gradient" x1="0%" y1="0%" x2="100%" y2="100%">
      <stop offset="0%" stop-color="#004494" />
      <stop offset="100%" stop-color="#0056b3" />
    </linearGradient>
    
    <!-- Pattern Definition -->
    <pattern id="grid-pattern" width="60" height="60" patternUnits="userSpaceOnUse">
      <path d="M 60 0 L 0 0 0 60" fill="none" stroke="rgba(255, 255, 255, 0.1)" stroke-width="1" />
    </pattern>
    
    <!-- Particle Effect -->
    <filter id="blur-effect" x="-50%" y="-50%" width="200%" height="200%">
      <feGaussianBlur in="SourceGraphic" stdDeviation="3" />
    </filter>
  </defs>
  
  <!-- Main Background -->
  <rect width="1920" height="1080" fill="url(#bg-gradient)" />
  
  <!-- Grid Pattern Overlay -->
  <rect width="1920" height="1080" fill="url(#grid-pattern)" />
  
  <!-- Abstract Shapes -->
  <g opacity="0.7">
    <!-- Large Circle -->
    <circle cx="300" cy="300" r="250" fill="none" stroke="rgba(255, 255, 255, 0.2)" stroke-width="2" />
    
    <!-- Medium Circle -->
    <circle cx="1600" cy="800" r="180" fill="none" stroke="rgba(255, 255, 255, 0.15)" stroke-width="2" />
    
    <!-- Small Circle -->
    <circle cx="1200" cy="200" r="100" fill="none" stroke="rgba(255, 255, 255, 0.25)" stroke-width="2" />
    
    <!-- Hexagon -->
    <polygon points="960,100 1060,150 1060,250 960,300 860,250 860,150" fill="none" stroke="rgba(255, 255, 255, 0.2)" stroke-width="2" />
    
    <!-- Large Hexagon -->
    <polygon points="960,540 1160,640 1160,840 960,940 760,840 760,640" fill="none" stroke="rgba(255, 255, 255, 0.15)" stroke-width="2" />
  </g>
  
  <!-- Particles -->
  <g filter="url(#blur-effect)">
    <circle cx="200" cy="200" r="4" fill="rgba(255, 255, 255, 0.7)" />
    <circle cx="400" cy="300" r="3" fill="rgba(255, 255, 255, 0.6)" />
    <circle cx="600" cy="150" r="5" fill="rgba(255, 255, 255, 0.8)" />
    <circle cx="800" cy="400" r="4" fill="rgba(255, 255, 255, 0.7)" />
    <circle cx="1000" cy="200" r="3" fill="rgba(255, 255, 255, 0.6)" />
    <circle cx="1200" cy="350" r="5" fill="rgba(255, 255, 255, 0.8)" />
    <circle cx="1400" cy="250" r="4" fill="rgba(255, 255, 255, 0.7)" />
    <circle cx="1600" cy="400" r="3" fill="rgba(255, 255, 255, 0.6)" />
    <circle cx="1800" cy="300" r="5" fill="rgba(255, 255, 255, 0.8)" />
    
    <circle cx="150" cy="500" r="4" fill="rgba(255, 255, 255, 0.7)" />
    <circle cx="350" cy="600" r="3" fill="rgba(255, 255, 255, 0.6)" />
    <circle cx="550" cy="450" r="5" fill="rgba(255, 255, 255, 0.8)" />
    <circle cx="750" cy="700" r="4" fill="rgba(255, 255, 255, 0.7)" />
    <circle cx="950" cy="500" r="3" fill="rgba(255, 255, 255, 0.6)" />
    <circle cx="1150" cy="650" r="5" fill="rgba(255, 255, 255, 0.8)" />
    <circle cx="1350" cy="550" r="4" fill="rgba(255, 255, 255, 0.7)" />
    <circle cx="1550" cy="700" r="3" fill="rgba(255, 255, 255, 0.6)" />
    <circle cx="1750" cy="600" r="5" fill="rgba(255, 255, 255, 0.8)" />
    
    <circle cx="200" cy="800" r="4" fill="rgba(255, 255, 255, 0.7)" />
    <circle cx="400" cy="900" r="3" fill="rgba(255, 255, 255, 0.6)" />
    <circle cx="600" cy="750" r="5" fill="rgba(255, 255, 255, 0.8)" />
    <circle cx="800" cy="1000" r="4" fill="rgba(255, 255, 255, 0.7)" />
    <circle cx="1000" cy="800" r="3" fill="rgba(255, 255, 255, 0.6)" />
    <circle cx="1200" cy="950" r="5" fill="rgba(255, 255, 255, 0.8)" />
    <circle cx="1400" cy="850" r="4" fill="rgba(255, 255, 255, 0.7)" />
    <circle cx="1600" cy="1000" r="3" fill="rgba(255, 255, 255, 0.6)" />
    <circle cx="1800" cy="900" r="5" fill="rgba(255, 255, 255, 0.8)" />
  </g>
  
  <!-- Coating Representation -->
  <g opacity="0.8">
    <!-- Layer 1 -->
    <rect x="100" y="900" width="1720" height="20" fill="rgba(0, 168, 232, 0.3)" />
    
    <!-- Layer 2 -->
    <rect x="100" y="920" width="1720" height="20" fill="rgba(0, 86, 179, 0.3)" />
    
    <!-- Layer 3 -->
    <rect x="100" y="940" width="1720" height="20" fill="rgba(0, 68, 148, 0.3)" />
  </g>
  
  <!-- Molecular Structure Representation -->
  <g opacity="0.6">
    <!-- Structure 1 -->
    <g transform="translate(300, 700)">
      <circle cx="0" cy="0" r="10" fill="rgba(255, 255, 255, 0.8)" />
      <circle cx="40" cy="-40" r="10" fill="rgba(255, 255, 255, 0.8)" />
      <circle cx="80" cy="0" r="10" fill="rgba(255, 255, 255, 0.8)" />
      <circle cx="40" cy="40" r="10" fill="rgba(255, 255, 255, 0.8)" />
      <line x1="0" y1="0" x2="40" y2="-40" stroke="rgba(255, 255, 255, 0.6)" stroke-width="2" />
      <line x1="40" y1="-40" x2="80" y2="0" stroke="rgba(255, 255, 255, 0.6)" stroke-width="2" />
      <line x1="80" y1="0" x2="40" y2="40" stroke="rgba(255, 255, 255, 0.6)" stroke-width="2" />
      <line x1="40" y1="40" x2="0" y2="0" stroke="rgba(255, 255, 255, 0.6)" stroke-width="2" />
    </g>
    
    <!-- Structure 2 -->
    <g transform="translate(1500, 300)">
      <circle cx="0" cy="0" r="10" fill="rgba(255, 255, 255, 0.8)" />
      <circle cx="40" cy="-40" r="10" fill="rgba(255, 255, 255, 0.8)" />
      <circle cx="80" cy="0" r="10" fill="rgba(255, 255, 255, 0.8)" />
      <circle cx="40" cy="40" r="10" fill="rgba(255, 255, 255, 0.8)" />
      <line x1="0" y1="0" x2="40" y2="-40" stroke="rgba(255, 255, 255, 0.6)" stroke-width="2" />
      <line x1="40" y1="-40" x2="80" y2="0" stroke="rgba(255, 255, 255, 0.6)" stroke-width="2" />
      <line x1="80" y1="0" x2="40" y2="40" stroke="rgba(255, 255, 255, 0.6)" stroke-width="2" />
      <line x1="40" y1="40" x2="0" y2="0" stroke="rgba(255, 255, 255, 0.6)" stroke-width="2" />
    </g>
  </g>
</svg>